<svg xmlns="http://www.w3.org/2000/svg" viewBox="0 0 32 32">
  <rect x="4" y="2" width="24" height="28" rx="4" fill="#34373a" stroke="#1c1f1d" stroke-width="2"/>
  <rect x="7" y="5" width="18" height="7" rx="1" fill="#a0b59c" stroke="#121c11" stroke-width="1"/>
  <rect x="7" y="14" width="4" height="3" rx="0.5" fill="#4a4f54"/>
  <rect x="12" y="14" width="4" height="3" rx="0.5" fill="#4a4f54"/>
  <rect x="17" y="14" width="4" height="3" rx="0.5" fill="#4a4f54"/>
  <rect x="22" y="14" width="4" height="3" rx="0.5" fill="#e11d48"/>
  <rect x="7" y="18" width="4" height="3" rx="0.5" fill="#2563eb"/>
  <rect x="12" y="18" width="4" height="3" rx="0.5" fill="#d97706"/>
  <rect x="17" y="18" width="4" height="3" rx="0.5" fill="#a1a1aa"/>
  <rect x="22" y="18" width="4" height="3" rx="0.5" fill="#a1a1aa"/>
  <rect x="7" y="22" width="4" height="3" rx="0.5" fill="#f4f4f5"/>
  <rect x="12" y="22" width="4" height="3" rx="0.5" fill="#f4f4f5"/>
  <rect x="17" y="22" width="4" height="3" rx="0.5" fill="#f4f4f5"/>
  <rect x="22" y="22" width="4" height="3" rx="0.5" fill="#10b981"/>
</svg>
